<?xml version="1.0" encoding="UTF-8" standalone="no"?><!DOCTYPE svg PUBLIC "-//W3C//DTD SVG 1.1//EN" "http://www.w3.org/Graphics/SVG/1.1/DTD/svg11.dtd"><!-- Generated by graphviz version 2.40.1 (20161225.0304)
 --><!-- Title: G Pages: 1 --><svg xmlns="http://www.w3.org/2000/svg" xmlns:xlink="http://www.w3.org/1999/xlink" width="1935pt" height="1435pt" viewBox="0.00 0.00 1935.00 1434.93">
<g id="graph0" class="graph" transform="scale(1 1) rotate(0) translate(4 1430.9278)">
<title>G</title>
<polygon fill="#ffffff" stroke="transparent" points="-4,4 -4,-1430.9278 1931,-1430.9278 1931,4 -4,4"/>
<!-- pp -->
<g id="node1" class="node">
<title>pp</title>
<ellipse fill="none" stroke="#ff0000" cx="276" cy="-1406.2343" rx="20.8887" ry="20.8887"/>
<text text-anchor="middle" x="276" y="-1402.0343" font-family="Times,serif" font-size="14.00" fill="#000000">pp</text>
</g>
<!-- qs -->
<g id="node18" class="node">
<title>qs</title>
<ellipse fill="none" stroke="#ff0000" cx="276" cy="-1329.9203" rx="19.7419" ry="19.7419"/>
<text text-anchor="middle" x="276" y="-1325.7203" font-family="Times,serif" font-size="14.00" fill="#000000">qs</text>
</g>
<!-- pp&#45;&gt;qs -->
<g id="edge76" class="edge">
<title>pp-&gt;qs</title>
<path fill="none" stroke="#000000" d="M276,-1385.3812C276,-1377.4748 276,-1368.3109 276,-1359.7376"/>
<polygon fill="#000000" stroke="#000000" points="279.5001,-1359.6971 276,-1349.6971 272.5001,-1359.6972 279.5001,-1359.6971"/>
</g>
<!-- gh -->
<g id="node57" class="node">
<title>gh</title>
<polygon fill="none" stroke="#0000ff" points="246,-1274.2997 210,-1274.2997 210,-1238.2997 246,-1238.2997 246,-1274.2997"/>
<text text-anchor="middle" x="228" y="-1252.0997" font-family="Times,serif" font-size="14.00" fill="#000000">gh</text>
</g>
<!-- pp&#45;&gt;gh -->
<g id="edge77" class="edge">
<title>pp-&gt;gh</title>
<path fill="none" stroke="#000000" d="M265.2927,-1388.4096C259.1553,-1377.5129 251.7512,-1363.1051 247,-1349.5409 239.5696,-1328.3279 234.6705,-1303.3265 231.7109,-1284.5551"/>
<polygon fill="#000000" stroke="#000000" points="235.1583,-1283.9417 230.2253,-1274.5653 228.2344,-1284.9714 235.1583,-1283.9417"/>
</g>
<!-- fz -->
<g id="node2" class="node">
<title>fz</title>
<ellipse fill="none" stroke="#ff0000" cx="1672" cy="-711.9446" rx="18.5761" ry="18.5761"/>
<text text-anchor="middle" x="1672" y="-707.7446" font-family="Times,serif" font-size="14.00" fill="#000000">fz</text>
</g>
<!-- zs -->
<g id="node10" class="node">
<title>zs</title>
<ellipse fill="none" stroke="#ff0000" cx="1710" cy="-634.5577" rx="19.158" ry="19.158"/>
<text text-anchor="middle" x="1710" y="-630.3577" font-family="Times,serif" font-size="14.00" fill="#000000">zs</text>
</g>
<!-- fz&#45;&gt;zs -->
<g id="edge73" class="edge">
<title>fz-&gt;zs</title>
<path fill="none" stroke="#000000" d="M1680.2454,-695.1528C1685.1568,-685.1508 1691.4977,-672.2375 1697.0633,-660.9033"/>
<polygon fill="#000000" stroke="#000000" points="1700.2415,-662.3715 1701.5075,-651.8525 1693.9581,-659.2861 1700.2415,-662.3715"/>
</g>
<!-- hz -->
<g id="node52" class="node">
<title>hz</title>
<polygon fill="none" stroke="#0000ff" points="1700,-252.2146 1664,-252.2146 1664,-216.2146 1700,-216.2146 1700,-252.2146"/>
<text text-anchor="middle" x="1682" y="-230.0146" font-family="Times,serif" font-size="14.00" fill="#000000">hz</text>
</g>
<!-- fz&#45;&gt;hz -->
<g id="edge72" class="edge">
<title>fz-&gt;hz</title>
<path fill="none" stroke="#000000" d="M1670.2219,-693.0593C1667.599,-663.5249 1663,-604.5943 1663,-554.4871 1663,-554.4871 1663,-554.4871 1663,-386.295 1663,-342.7377 1670.769,-292.7007 1676.3713,-262.2813"/>
<polygon fill="#000000" stroke="#000000" points="1679.824,-262.8592 1678.2462,-252.3825 1672.9463,-261.5565 1679.824,-262.8592"/>
</g>
<!-- dx -->
<g id="node3" class="node">
<title>dx</title>
<ellipse fill="none" stroke="#ff0000" cx="648" cy="-789.3315" rx="20.8887" ry="20.8887"/>
<text text-anchor="middle" x="648" y="-785.1315" font-family="Times,serif" font-size="14.00" fill="#000000">dx</text>
</g>
<!-- rb -->
<g id="node24" class="node">
<title>rb</title>
<ellipse fill="none" stroke="#ff0000" cx="684" cy="-711.9446" rx="19.1599" ry="19.1599"/>
<text text-anchor="middle" x="684" y="-707.7446" font-family="Times,serif" font-size="14.00" fill="#000000">rb</text>
</g>
<!-- dx&#45;&gt;rb -->
<g id="edge59" class="edge">
<title>dx-&gt;rb</title>
<path fill="none" stroke="#000000" d="M656.8989,-770.2021C661.3625,-760.607 666.8394,-748.8336 671.6985,-738.3883"/>
<polygon fill="#000000" stroke="#000000" points="674.896,-739.8128 675.9405,-729.2695 668.5491,-736.8602 674.896,-739.8128"/>
</g>
<!-- cn -->
<g id="node50" class="node">
<title>cn</title>
<polygon fill="none" stroke="#0000ff" points="750,-252.2146 714,-252.2146 714,-216.2146 750,-216.2146 750,-252.2146"/>
<text text-anchor="middle" x="732" y="-230.0146" font-family="Times,serif" font-size="14.00" fill="#000000">cn</text>
</g>
<!-- dx&#45;&gt;cn -->
<g id="edge58" class="edge">
<title>dx-&gt;cn</title>
<path fill="none" stroke="#000000" d="M645.5587,-768.3364C642.3181,-738.6041 637,-682.5077 637,-634.5577 637,-634.5577 637,-634.5577 637,-386.295 637,-333.9367 678.0045,-284.7336 706.135,-257.139"/>
<polygon fill="#000000" stroke="#000000" points="708.8594,-259.3773 713.683,-249.9442 704.0297,-254.3104 708.8594,-259.3773"/>
</g>
<!-- tv -->
<g id="node4" class="node">
<title>tv</title>
<ellipse fill="none" stroke="#ff0000" cx="400" cy="-1182.148" rx="18.5974" ry="18.5974"/>
<text text-anchor="middle" x="400" y="-1177.948" font-family="Times,serif" font-size="14.00" fill="#000000">tv</text>
</g>
<!-- xl -->
<g id="node48" class="node">
<title>xl</title>
<ellipse fill="none" stroke="#ff0000" cx="275" cy="-1104.2329" rx="18.5974" ry="18.5974"/>
<text text-anchor="middle" x="275" y="-1100.0329" font-family="Times,serif" font-size="14.00" fill="#000000">xl</text>
</g>
<!-- tv&#45;&gt;xl -->
<g id="edge3" class="edge">
<title>tv-&gt;xl</title>
<path fill="none" stroke="#000000" d="M384.1687,-1172.28C362.8712,-1159.0049 324.7766,-1135.2597 299.6944,-1119.6255"/>
<polygon fill="#000000" stroke="#000000" points="301.4354,-1116.5864 291.0976,-1114.2669 297.7326,-1122.5269 301.4354,-1116.5864"/>
</g>
<!-- tv&#45;&gt;gh -->
<g id="edge2" class="edge">
<title>tv-&gt;gh</title>
<path fill="none" stroke="#000000" d="M387.514,-1195.9365C383.8388,-1198.1829 379.8509,-1200.3948 376,-1202.2997 335.7628,-1222.2042 286.2627,-1239.919 255.7113,-1249.2786"/>
<polygon fill="#000000" stroke="#000000" points="254.7099,-1245.9248 246.1176,-1252.1235 256.7001,-1252.636 254.7099,-1245.9248"/>
</g>
<!-- th -->
<g id="node5" class="node">
<title>th</title>
<ellipse fill="none" stroke="#ff0000" cx="1786" cy="-308.9081" rx="18.5974" ry="18.5974"/>
<text text-anchor="middle" x="1786" y="-304.7081" font-family="Times,serif" font-size="14.00" fill="#000000">th</text>
</g>
<!-- th&#45;&gt;hz -->
<g id="edge11" class="edge">
<title>th-&gt;hz</title>
<path fill="none" stroke="#000000" d="M1770.6544,-297.8868C1754.3137,-286.1508 1728.1474,-267.358 1708.4691,-253.2249"/>
<polygon fill="#000000" stroke="#000000" points="1710.3761,-250.2853 1700.2121,-247.2946 1706.2926,-255.9709 1710.3761,-250.2853"/>
</g>
<!-- qg -->
<g id="node6" class="node">
<title>qg</title>
<ellipse fill="none" stroke="#ff0000" cx="1292" cy="-308.9081" rx="20.8887" ry="20.8887"/>
<text text-anchor="middle" x="1292" y="-304.7081" font-family="Times,serif" font-size="14.00" fill="#000000">qg</text>
</g>
<!-- xc -->
<g id="node56" class="node">
<title>xc</title>
<polygon fill="none" stroke="#0000ff" points="1204,-252.2146 1168,-252.2146 1168,-216.2146 1204,-216.2146 1204,-252.2146"/>
<text text-anchor="middle" x="1186" y="-230.0146" font-family="Times,serif" font-size="14.00" fill="#000000">xc</text>
</g>
<!-- qg&#45;&gt;xc -->
<g id="edge48" class="edge">
<title>qg-&gt;xc</title>
<path fill="none" stroke="#000000" d="M1274.9693,-296.9073C1258.0443,-284.981 1231.8533,-266.5254 1212.2642,-252.7218"/>
<polygon fill="#000000" stroke="#000000" points="1214.2432,-249.8347 1204.0528,-246.9356 1210.2111,-255.5568 1214.2432,-249.8347"/>
</g>
<!-- xd -->
<g id="node7" class="node">
<title>xd</title>
<ellipse fill="none" stroke="#ff0000" cx="551" cy="-1104.2329" rx="20.8887" ry="20.8887"/>
<text text-anchor="middle" x="551" y="-1100.0329" font-family="Times,serif" font-size="14.00" fill="#000000">xd</text>
</g>
<!-- jk -->
<g id="node36" class="node">
<title>jk</title>
<ellipse fill="none" stroke="#ff0000" cx="551" cy="-1025.776" rx="18.5974" ry="18.5974"/>
<text text-anchor="middle" x="551" y="-1021.576" font-family="Times,serif" font-size="14.00" fill="#000000">jk</text>
</g>
<!-- xd&#45;&gt;jk -->
<g id="edge19" class="edge">
<title>xd-&gt;jk</title>
<path fill="none" stroke="#000000" d="M551,-1083.2079C551,-1074.4355 551,-1064.1026 551,-1054.6372"/>
<polygon fill="#000000" stroke="#000000" points="554.5001,-1054.4485 551,-1044.4485 547.5001,-1054.4485 554.5001,-1054.4485"/>
</g>
<!-- px -->
<g id="node8" class="node">
<title>px</title>
<ellipse fill="none" stroke="#ff0000" cx="1178" cy="-711.9446" rx="20.8887" ry="20.8887"/>
<text text-anchor="middle" x="1178" y="-707.7446" font-family="Times,serif" font-size="14.00" fill="#000000">px</text>
</g>
<!-- hg -->
<g id="node40" class="node">
<title>hg</title>
<ellipse fill="none" stroke="#ff0000" cx="1216" cy="-634.5577" rx="20.8887" ry="20.8887"/>
<text text-anchor="middle" x="1216" y="-630.3577" font-family="Times,serif" font-size="14.00" fill="#000000">hg</text>
</g>
<!-- px&#45;&gt;hg -->
<g id="edge52" class="edge">
<title>px-&gt;hg</title>
<path fill="none" stroke="#000000" d="M1187.1987,-693.2114C1191.7394,-683.9644 1197.3084,-672.623 1202.3353,-662.3859"/>
<polygon fill="#000000" stroke="#000000" points="1205.4882,-663.9055 1206.7543,-653.3866 1199.2049,-660.8201 1205.4882,-663.9055"/>
</g>
<!-- px&#45;&gt;xc -->
<g id="edge51" class="edge">
<title>px-&gt;xc</title>
<path fill="none" stroke="#000000" d="M1175.6402,-691.3433C1172.4081,-661.2975 1167,-603.6755 1167,-554.4871 1167,-554.4871 1167,-554.4871 1167,-386.295 1167,-342.7377 1174.769,-292.7007 1180.3713,-262.2813"/>
<polygon fill="#000000" stroke="#000000" points="1183.824,-262.8592 1182.2462,-252.3825 1176.9463,-261.5565 1183.824,-262.8592"/>
</g>
<!-- qc -->
<g id="node9" class="node">
<title>qc</title>
<ellipse fill="none" stroke="#ff0000" cx="1292" cy="-386.295" rx="20.3045" ry="20.3045"/>
<text text-anchor="middle" x="1292" y="-382.095" font-family="Times,serif" font-size="14.00" fill="#000000">qc</text>
</g>
<!-- qc&#45;&gt;qg -->
<g id="edge21" class="edge">
<title>qc-&gt;qg</title>
<path fill="none" stroke="#000000" d="M1292,-365.9625C1292,-357.9157 1292,-348.4897 1292,-339.6438"/>
<polygon fill="#000000" stroke="#000000" points="1295.5001,-339.6431 1292,-329.6431 1288.5001,-339.6432 1295.5001,-339.6431"/>
</g>
<!-- qc&#45;&gt;xc -->
<g id="edge22" class="edge">
<title>qc-&gt;xc</title>
<path fill="none" stroke="#000000" d="M1280.4544,-369.7302C1262.209,-343.5532 1226.5379,-292.3752 1204.6341,-260.9493"/>
<polygon fill="#000000" stroke="#000000" points="1207.4366,-258.8491 1198.8471,-252.6466 1201.6939,-262.8518 1207.4366,-258.8491"/>
</g>
<!-- cz -->
<g id="node16" class="node">
<title>cz</title>
<ellipse fill="none" stroke="#ff0000" cx="1805" cy="-554.4871" rx="19.7205" ry="19.7205"/>
<text text-anchor="middle" x="1805" y="-550.2871" font-family="Times,serif" font-size="14.00" fill="#000000">cz</text>
</g>
<!-- zs&#45;&gt;cz -->
<g id="edge46" class="edge">
<title>zs-&gt;cz</title>
<path fill="none" stroke="#000000" d="M1724.8438,-622.0466C1740.2302,-609.0782 1764.4772,-588.6417 1782.2772,-573.639"/>
<polygon fill="#000000" stroke="#000000" points="1784.5563,-576.2954 1789.947,-567.1745 1780.045,-570.943 1784.5563,-576.2954"/>
</g>
<!-- jp -->
<g id="node11" class="node">
<title>jp</title>
<ellipse fill="none" stroke="#ff0000" cx="798" cy="-308.9081" rx="18.5974" ry="18.5974"/>
<text text-anchor="middle" x="798" y="-304.7081" font-family="Times,serif" font-size="14.00" fill="#000000">jp</text>
</g>
<!-- jp&#45;&gt;cn -->
<g id="edge71" class="edge">
<title>jp-&gt;cn</title>
<path fill="none" stroke="#000000" d="M785.5859,-294.8588C776.9695,-285.1074 765.2355,-271.8278 754.9441,-260.1809"/>
<polygon fill="#000000" stroke="#000000" points="757.3502,-257.6181 748.1058,-252.4419 752.1046,-262.2531 757.3502,-257.6181"/>
</g>
<!-- vm -->
<g id="node12" class="node">
<title>vm</title>
<ellipse fill="none" stroke="#ff0000" cx="235" cy="-554.4871" rx="23.2549" ry="23.2549"/>
<text text-anchor="middle" x="235" y="-550.2871" font-family="Times,serif" font-size="14.00" fill="#000000">vm</text>
</g>
<!-- vv -->
<g id="node30" class="node">
<title>vv</title>
<ellipse fill="none" stroke="#ff0000" cx="360" cy="-469.0492" rx="20.8887" ry="20.8887"/>
<text text-anchor="middle" x="360" y="-464.8492" font-family="Times,serif" font-size="14.00" fill="#000000">vv</text>
</g>
<!-- vm&#45;&gt;vv -->
<g id="edge34" class="edge">
<title>vm-&gt;vv</title>
<path fill="none" stroke="#000000" d="M254.5313,-541.1374C275.9632,-526.4886 310.4604,-502.9097 334.1284,-486.7325"/>
<polygon fill="#000000" stroke="#000000" points="336.3385,-489.4614 342.6193,-480.929 332.3885,-483.6823 336.3385,-489.4614"/>
</g>
<!-- vm&#45;&gt;gh -->
<g id="edge33" class="edge">
<title>vm-&gt;gh</title>
<path fill="none" stroke="#000000" d="M212.4016,-560.7437C160.6561,-576.5965 38,-623.5015 38,-711.9446 38,-1104.2329 38,-1104.2329 38,-1104.2329 38,-1153.1563 51.6649,-1169.5391 88,-1202.2997 120.0184,-1231.1684 169.1446,-1245.2791 199.8803,-1251.6484"/>
<polygon fill="#000000" stroke="#000000" points="199.4443,-1255.1288 209.9267,-1253.5899 200.7725,-1248.2559 199.4443,-1255.1288"/>
</g>
<!-- qr -->
<g id="node13" class="node">
<title>qr</title>
<ellipse fill="none" stroke="#ff0000" cx="722" cy="-634.5577" rx="19.1599" ry="19.1599"/>
<text text-anchor="middle" x="722" y="-630.3577" font-family="Times,serif" font-size="14.00" fill="#000000">qr</text>
</g>
<!-- jd -->
<g id="node22" class="node">
<title>jd</title>
<ellipse fill="none" stroke="#ff0000" cx="812" cy="-554.4871" rx="18.5974" ry="18.5974"/>
<text text-anchor="middle" x="812" y="-550.2871" font-family="Times,serif" font-size="14.00" fill="#000000">jd</text>
</g>
<!-- qr&#45;&gt;jd -->
<g id="edge68" class="edge">
<title>qr-&gt;jd</title>
<path fill="none" stroke="#000000" d="M736.4601,-621.6929C750.9786,-608.7761 773.5277,-588.7148 790.2133,-573.8701"/>
<polygon fill="#000000" stroke="#000000" points="792.7278,-576.3178 797.8726,-567.0559 788.0749,-571.0879 792.7278,-576.3178"/>
</g>
<!-- qr&#45;&gt;cn -->
<g id="edge67" class="edge">
<title>qr-&gt;cn</title>
<path fill="none" stroke="#000000" d="M720.2647,-615.211C717.6494,-584.3349 713,-521.9981 713,-469.0492 713,-469.0492 713,-469.0492 713,-386.295 713,-342.7377 720.769,-292.7007 726.3713,-262.2813"/>
<polygon fill="#000000" stroke="#000000" points="729.824,-262.8592 728.2462,-252.3825 722.9463,-261.5565 729.824,-262.8592"/>
</g>
<!-- tc -->
<g id="node14" class="node">
<title>tc</title>
<ellipse fill="none" stroke="#ff0000" cx="607" cy="-866.1766" rx="18.0138" ry="18.0138"/>
<text text-anchor="middle" x="607" y="-861.9766" font-family="Times,serif" font-size="14.00" fill="#000000">tc</text>
</g>
<!-- tc&#45;&gt;dx -->
<g id="edge5" class="edge">
<title>tc-&gt;dx</title>
<path fill="none" stroke="#000000" d="M615.4952,-850.2543C620.6627,-840.5689 627.4016,-827.9385 633.4027,-816.6909"/>
<polygon fill="#000000" stroke="#000000" points="636.6,-818.1334 638.2194,-807.663 630.424,-814.8382 636.6,-818.1334"/>
</g>
<!-- pg -->
<g id="node15" class="node">
<title>pg</title>
<ellipse fill="none" stroke="#ff0000" cx="235" cy="-634.5577" rx="20.8887" ry="20.8887"/>
<text text-anchor="middle" x="235" y="-630.3577" font-family="Times,serif" font-size="14.00" fill="#000000">pg</text>
</g>
<!-- pg&#45;&gt;vm -->
<g id="edge35" class="edge">
<title>pg-&gt;vm</title>
<path fill="none" stroke="#000000" d="M235,-613.5201C235,-605.7459 235,-596.7276 235,-588.1154"/>
<polygon fill="#000000" stroke="#000000" points="238.5001,-587.9227 235,-577.9227 231.5001,-587.9227 238.5001,-587.9227"/>
</g>
<!-- pg&#45;&gt;gh -->
<g id="edge36" class="edge">
<title>pg-&gt;gh</title>
<path fill="none" stroke="#000000" d="M250.1542,-649.2509C275.0803,-675.0748 322,-731.3812 322,-789.3315 322,-1025.776 322,-1025.776 322,-1025.776 322,-1108.0842 307.7766,-1131.3818 266,-1202.2997 260.5015,-1211.6337 253.8844,-1221.4349 247.7238,-1230.0864"/>
<polygon fill="#000000" stroke="#000000" points="244.8089,-1228.1441 241.7736,-1238.2949 250.4765,-1232.2525 244.8089,-1228.1441"/>
</g>
<!-- dt -->
<g id="node32" class="node">
<title>dt</title>
<ellipse fill="none" stroke="#ff0000" cx="1805" cy="-469.0492" rx="18.5974" ry="18.5974"/>
<text text-anchor="middle" x="1805" y="-464.8492" font-family="Times,serif" font-size="14.00" fill="#000000">dt</text>
</g>
<!-- cz&#45;&gt;dt -->
<g id="edge50" class="edge">
<title>cz-&gt;dt</title>
<path fill="none" stroke="#000000" d="M1805,-534.6712C1805,-523.7669 1805,-510.036 1805,-497.9562"/>
<polygon fill="#000000" stroke="#000000" points="1808.5001,-497.8782 1805,-487.8782 1801.5001,-497.8782 1808.5001,-497.8782"/>
</g>
<!-- cz&#45;&gt;hz -->
<g id="edge49" class="edge">
<title>cz-&gt;hz</title>
<path fill="none" stroke="#000000" d="M1814.5447,-536.9774C1838.2823,-490.7985 1893.9637,-364.0543 1835,-288.2146 1819.4065,-268.1581 1749.8264,-249.5558 1710.0809,-240.3161"/>
<polygon fill="#000000" stroke="#000000" points="1710.7275,-236.8739 1700.2003,-238.069 1709.1751,-243.6996 1710.7275,-236.8739"/>
</g>
<!-- cx -->
<g id="node17" class="node">
<title>cx</title>
<ellipse fill="none" stroke="#ff0000" cx="930" cy="-1182.148" rx="20.3045" ry="20.3045"/>
<text text-anchor="middle" x="930" y="-1177.948" font-family="Times,serif" font-size="14.00" fill="#000000">cx</text>
</g>
<!-- cx&#45;&gt;xd -->
<g id="edge65" class="edge">
<title>cx-&gt;xd</title>
<path fill="none" stroke="#000000" d="M910.1569,-1178.0687C848.0245,-1165.2954 656.9022,-1126.0044 581.7787,-1110.5604"/>
<polygon fill="#000000" stroke="#000000" points="582.0657,-1107.0463 571.5658,-1108.4608 580.6561,-1113.9029 582.0657,-1107.0463"/>
</g>
<!-- cx&#45;&gt;cn -->
<g id="edge66" class="edge">
<title>cx-&gt;cn</title>
<path fill="none" stroke="#000000" d="M924.181,-1162.4002C921,-1132.737 921,-1074.9138 921,-1025.776 921,-1025.776 921,-1025.776 921,-386.295 921,-335.194 900.1701,-321.0325 861,-288.2146 831.098,-263.1617 788.2048,-248.8422 760.0701,-241.3304"/>
<polygon fill="#000000" stroke="#000000" points="760.6227,-237.8593 750.0677,-238.7766 758.891,-244.6417 760.6227,-237.8593"/>
</g>
<!-- qs&#45;&gt;gh -->
<g id="edge83" class="edge">
<title>qs-&gt;gh</title>
<path fill="none" stroke="#000000" d="M265.1081,-1313.2147C259.289,-1304.2897 251.987,-1293.0901 245.4031,-1282.992"/>
<polygon fill="#000000" stroke="#000000" points="248.251,-1280.9515 239.8575,-1274.4863 242.3872,-1284.7747 248.251,-1280.9515"/>
</g>
<!-- hn -->
<g id="node19" class="node">
<title>hn</title>
<ellipse fill="none" stroke="#ff0000" cx="1046" cy="-1025.776" rx="20.8887" ry="20.8887"/>
<text text-anchor="middle" x="1046" y="-1021.576" font-family="Times,serif" font-size="14.00" fill="#000000">hn</text>
</g>
<!-- bm -->
<g id="node35" class="node">
<title>bm</title>
<ellipse fill="none" stroke="#ff0000" cx="1066" cy="-945.7054" rx="23.2549" ry="23.2549"/>
<text text-anchor="middle" x="1066" y="-941.5054" font-family="Times,serif" font-size="14.00" fill="#000000">bm</text>
</g>
<!-- hn&#45;&gt;bm -->
<g id="edge101" class="edge">
<title>hn-&gt;bm</title>
<path fill="none" stroke="#000000" d="M1051.0468,-1005.5708C1053.1204,-997.2693 1055.5741,-987.446 1057.8878,-978.1828"/>
<polygon fill="#000000" stroke="#000000" points="1061.2912,-978.9998 1060.319,-968.4496 1054.4999,-977.3034 1061.2912,-978.9998"/>
</g>
<!-- mm -->
<g id="node20" class="node">
<title>mm</title>
<ellipse fill="none" stroke="#ff0000" cx="812" cy="-469.0492" rx="26.1217" ry="26.1217"/>
<text text-anchor="middle" x="812" y="-464.8492" font-family="Times,serif" font-size="14.00" fill="#000000">mm</text>
</g>
<!-- bk -->
<g id="node27" class="node">
<title>bk</title>
<ellipse fill="none" stroke="#ff0000" cx="796" cy="-386.295" rx="20.8887" ry="20.8887"/>
<text text-anchor="middle" x="796" y="-382.095" font-family="Times,serif" font-size="14.00" fill="#000000">bk</text>
</g>
<!-- mm&#45;&gt;bk -->
<g id="edge94" class="edge">
<title>mm-&gt;bk</title>
<path fill="none" stroke="#000000" d="M807.0252,-443.3189C805.39,-434.8615 803.5571,-425.3813 801.8623,-416.6156"/>
<polygon fill="#000000" stroke="#000000" points="805.2911,-415.9115 799.9563,-406.7577 798.4183,-417.2403 805.2911,-415.9115"/>
</g>
<!-- mm&#45;&gt;cn -->
<g id="edge93" class="edge">
<title>mm-&gt;cn</title>
<path fill="none" stroke="#000000" d="M822.0295,-444.8881C835.5211,-408.2896 854.7085,-337.8152 826,-288.2146 811.8559,-263.7774 782.0071,-249.4368 759.7179,-241.7515"/>
<polygon fill="#000000" stroke="#000000" points="760.6833,-238.3857 750.0924,-238.6763 758.553,-245.0536 760.6833,-238.3857"/>
</g>
<!-- xj -->
<g id="node21" class="node">
<title>xj</title>
<ellipse fill="none" stroke="#ff0000" cx="1634" cy="-789.3315" rx="18.5974" ry="18.5974"/>
<text text-anchor="middle" x="1634" y="-785.1315" font-family="Times,serif" font-size="14.00" fill="#000000">xj</text>
</g>
<!-- xj&#45;&gt;fz -->
<g id="edge82" class="edge">
<title>xj-&gt;fz</title>
<path fill="none" stroke="#000000" d="M1642.2454,-772.5397C1647.225,-762.3988 1653.6741,-749.2652 1659.2947,-737.8189"/>
<polygon fill="#000000" stroke="#000000" points="1662.5046,-739.2225 1663.7707,-728.7036 1656.2213,-736.1371 1662.5046,-739.2225"/>
</g>
<!-- jd&#45;&gt;mm -->
<g id="edge45" class="edge">
<title>jd-&gt;mm</title>
<path fill="none" stroke="#000000" d="M812,-535.5257C812,-526.6766 812,-515.8333 812,-505.4916"/>
<polygon fill="#000000" stroke="#000000" points="815.5001,-505.4096 812,-495.4097 808.5001,-505.4097 815.5001,-505.4096"/>
</g>
<!-- sq -->
<g id="node23" class="node">
<title>sq</title>
<ellipse fill="none" stroke="#ff0000" cx="1785" cy="-386.295" rx="19.7419" ry="19.7419"/>
<text text-anchor="middle" x="1785" y="-382.095" font-family="Times,serif" font-size="14.00" fill="#000000">sq</text>
</g>
<!-- sq&#45;&gt;th -->
<g id="edge80" class="edge">
<title>sq-&gt;th</title>
<path fill="none" stroke="#000000" d="M1785.2575,-366.3659C1785.3694,-357.7108 1785.5026,-347.4029 1785.6251,-337.9232"/>
<polygon fill="#000000" stroke="#000000" points="1789.1275,-337.749 1785.7571,-327.7045 1782.1281,-337.6584 1789.1275,-337.749"/>
</g>
<!-- sq&#45;&gt;hz -->
<g id="edge81" class="edge">
<title>sq-&gt;hz</title>
<path fill="none" stroke="#000000" d="M1773.9772,-370.0197C1756.2358,-343.8243 1721.1812,-292.0659 1699.8426,-260.5594"/>
<polygon fill="#000000" stroke="#000000" points="1702.7192,-258.5651 1694.2136,-252.248 1696.9233,-262.4905 1702.7192,-258.5651"/>
</g>
<!-- rb&#45;&gt;qr -->
<g id="edge86" class="edge">
<title>rb-&gt;qr</title>
<path fill="none" stroke="#000000" d="M692.4334,-694.7699C697.3532,-684.7509 703.6588,-671.9095 709.1821,-660.6612"/>
<polygon fill="#000000" stroke="#000000" points="712.3241,-662.2032 713.5901,-651.6843 706.0407,-659.1178 712.3241,-662.2032"/>
</g>
<!-- rb&#45;&gt;cn -->
<g id="edge85" class="edge">
<title>rb-&gt;cn</title>
<path fill="none" stroke="#000000" d="M682.1787,-692.5725C679.5489,-662.8811 675,-604.3205 675,-554.4871 675,-554.4871 675,-554.4871 675,-386.295 675,-340.2434 698.2004,-291.0517 714.9982,-261.4708"/>
<polygon fill="#000000" stroke="#000000" points="718.1673,-262.9846 720.1896,-252.5845 712.1232,-259.4536 718.1673,-262.9846"/>
</g>
<!-- sz -->
<g id="node25" class="node">
<title>sz</title>
<ellipse fill="none" stroke="#ff0000" cx="237" cy="-1025.776" rx="19.158" ry="19.158"/>
<text text-anchor="middle" x="237" y="-1021.576" font-family="Times,serif" font-size="14.00" fill="#000000">sz</text>
</g>
<!-- vx -->
<g id="node46" class="node">
<title>vx</title>
<ellipse fill="none" stroke="#ff0000" cx="201" cy="-945.7054" rx="20.8887" ry="20.8887"/>
<text text-anchor="middle" x="201" y="-941.5054" font-family="Times,serif" font-size="14.00" fill="#000000">vx</text>
</g>
<!-- sz&#45;&gt;vx -->
<g id="edge25" class="edge">
<title>sz-&gt;vx</title>
<path fill="none" stroke="#000000" d="M229.0104,-1008.0058C224.5565,-998.0993 218.9035,-985.5261 213.8441,-974.273"/>
<polygon fill="#000000" stroke="#000000" points="216.8886,-972.5092 209.5957,-964.8239 210.5042,-975.3797 216.8886,-972.5092"/>
</g>
<!-- bq -->
<g id="node26" class="node">
<title>bq</title>
<ellipse fill="none" stroke="#ff0000" cx="1311" cy="-554.4871" rx="20.8887" ry="20.8887"/>
<text text-anchor="middle" x="1311" y="-550.2871" font-family="Times,serif" font-size="14.00" fill="#000000">bq</text>
</g>
<!-- zv -->
<g id="node41" class="node">
<title>zv</title>
<ellipse fill="none" stroke="#ff0000" cx="1311" cy="-469.0492" rx="20.3045" ry="20.3045"/>
<text text-anchor="middle" x="1311" y="-464.8492" font-family="Times,serif" font-size="14.00" fill="#000000">zv</text>
</g>
<!-- bq&#45;&gt;zv -->
<g id="edge27" class="edge">
<title>bq-&gt;zv</title>
<path fill="none" stroke="#000000" d="M1311,-533.3676C1311,-523.1819 1311,-510.7729 1311,-499.5817"/>
<polygon fill="#000000" stroke="#000000" points="1314.5001,-499.3374 1311,-489.3374 1307.5001,-499.3374 1314.5001,-499.3374"/>
</g>
<!-- bq&#45;&gt;xc -->
<g id="edge26" class="edge">
<title>bq-&gt;xc</title>
<path fill="none" stroke="#000000" d="M1321.0793,-536.3249C1345.4783,-489.6536 1401.5469,-363.8933 1343,-288.2146 1326.9779,-267.5042 1254.6197,-248.9915 1213.9595,-239.9886"/>
<polygon fill="#000000" stroke="#000000" points="1214.6341,-236.5536 1204.1199,-237.8585 1213.153,-243.3951 1214.6341,-236.5536"/>
</g>
<!-- bk&#45;&gt;jp -->
<g id="edge95" class="edge">
<title>bk-&gt;jp</title>
<path fill="none" stroke="#000000" d="M796.536,-365.5567C796.7579,-356.969 797.019,-346.8651 797.2588,-337.5864"/>
<polygon fill="#000000" stroke="#000000" points="800.7577,-337.6729 797.5173,-327.5858 793.76,-337.492 800.7577,-337.6729"/>
</g>
<!-- bk&#45;&gt;cn -->
<g id="edge96" class="edge">
<title>bk-&gt;cn</title>
<path fill="none" stroke="#000000" d="M787.0916,-367.5043C781.9554,-356.5163 775.4554,-342.3429 770,-329.6015 760.3057,-306.9599 750.0065,-280.9726 742.5793,-261.8465"/>
<polygon fill="#000000" stroke="#000000" points="745.7432,-260.324 738.8733,-252.2584 739.214,-262.8478 745.7432,-260.324"/>
</g>
<!-- kg -->
<g id="node28" class="node">
<title>kg</title>
<ellipse fill="none" stroke="#ff0000" cx="1046" cy="-1104.2329" rx="20.8887" ry="20.8887"/>
<text text-anchor="middle" x="1046" y="-1100.0329" font-family="Times,serif" font-size="14.00" fill="#000000">kg</text>
</g>
<!-- kg&#45;&gt;hn -->
<g id="edge108" class="edge">
<title>kg-&gt;hn</title>
<path fill="none" stroke="#000000" d="M1046,-1083.2079C1046,-1075.0518 1046,-1065.5468 1046,-1056.6442"/>
<polygon fill="#000000" stroke="#000000" points="1049.5001,-1056.587 1046,-1046.587 1042.5001,-1056.587 1049.5001,-1056.587"/>
</g>
<!-- kg&#45;&gt;xc -->
<g id="edge109" class="edge">
<title>kg-&gt;xc</title>
<path fill="none" stroke="#000000" d="M1033.3443,-1087.6794C1013.4246,-1059.923 977,-1001.5354 977,-945.7054 977,-945.7054 977,-945.7054 977,-386.295 977,-338.1475 986.9962,-320.1818 1023,-288.2146 1061.4854,-254.044 1122.1934,-241.4028 1157.6485,-236.7934"/>
<polygon fill="#000000" stroke="#000000" points="1158.2636,-240.2453 1167.7886,-235.6058 1157.4493,-233.2929 1158.2636,-240.2453"/>
</g>
<!-- jx -->
<g id="node29" class="node">
<title>jx</title>
<ellipse fill="none" stroke="#ff0000" cx="142" cy="-789.3315" rx="18.5974" ry="18.5974"/>
<text text-anchor="middle" x="142" y="-785.1315" font-family="Times,serif" font-size="14.00" fill="#000000">jx</text>
</g>
<!-- lk -->
<g id="node43" class="node">
<title>lk</title>
<ellipse fill="none" stroke="#ff0000" cx="142" cy="-711.9446" rx="18.5974" ry="18.5974"/>
<text text-anchor="middle" x="142" y="-707.7446" font-family="Times,serif" font-size="14.00" fill="#000000">lk</text>
</g>
<!-- jx&#45;&gt;lk -->
<g id="edge74" class="edge">
<title>jx-&gt;lk</title>
<path fill="none" stroke="#000000" d="M142,-770.5983C142,-761.663 142,-750.7722 142,-740.8117"/>
<polygon fill="#000000" stroke="#000000" points="145.5001,-740.5052 142,-730.5053 138.5001,-740.5053 145.5001,-740.5052"/>
</g>
<!-- jx&#45;&gt;gh -->
<g id="edge75" class="edge">
<title>jx-&gt;gh</title>
<path fill="none" stroke="#000000" d="M136.6013,-807.4394C128.4648,-836.3771 114,-894.9582 114,-945.7054 114,-1104.2329 114,-1104.2329 114,-1104.2329 114,-1152.5653 130.9986,-1164.406 161,-1202.2997 172.3347,-1216.6162 188.119,-1229.5716 201.5202,-1239.202"/>
<polygon fill="#000000" stroke="#000000" points="199.7021,-1242.2007 209.9118,-1245.0314 203.6958,-1236.4517 199.7021,-1242.2007"/>
</g>
<!-- vv&#45;&gt;pp -->
<g id="edge8" class="edge">
<title>vv-&gt;pp</title>
<path fill="none" stroke="#000000" d="M374.3663,-484.0809C399.0767,-511.5859 447,-572.8798 447,-634.5577 447,-1256.2997 447,-1256.2997 447,-1256.2997 447,-1330.7306 354.2749,-1376.8454 305.3861,-1395.9864"/>
<polygon fill="#000000" stroke="#000000" points="304.0633,-1392.7447 295.9505,-1399.5589 306.542,-1399.2912 304.0633,-1392.7447"/>
</g>
<!-- vv&#45;&gt;gh -->
<g id="edge9" class="edge">
<title>vv-&gt;gh</title>
<path fill="none" stroke="#000000" d="M360,-489.9508C360,-521.3472 360,-582.5489 360,-634.5577 360,-1025.776 360,-1025.776 360,-1025.776 360,-1109.8508 342.881,-1135.3693 292,-1202.2997 281.5633,-1216.0286 267.0568,-1228.629 254.4932,-1238.1989"/>
<polygon fill="#000000" stroke="#000000" points="252.1594,-1235.5707 246.1796,-1244.3167 256.3083,-1241.2087 252.1594,-1235.5707"/>
</g>
<!-- xr -->
<g id="node31" class="node">
<title>xr</title>
<ellipse fill="none" stroke="#ff0000" cx="1100" cy="-866.1766" rx="19.1599" ry="19.1599"/>
<text text-anchor="middle" x="1100" y="-861.9766" font-family="Times,serif" font-size="14.00" fill="#000000">xr</text>
</g>
<!-- bd -->
<g id="node44" class="node">
<title>bd</title>
<ellipse fill="none" stroke="#ff0000" cx="1140" cy="-789.3315" rx="20.8887" ry="20.8887"/>
<text text-anchor="middle" x="1140" y="-785.1315" font-family="Times,serif" font-size="14.00" fill="#000000">bd</text>
</g>
<!-- xr&#45;&gt;bd -->
<g id="edge6" class="edge">
<title>xr-&gt;bd</title>
<path fill="none" stroke="#000000" d="M1108.8773,-849.1222C1113.7905,-839.6832 1120.0169,-827.7215 1125.6074,-816.9815"/>
<polygon fill="#000000" stroke="#000000" points="1128.7949,-818.4382 1130.3075,-807.9519 1122.5857,-815.2061 1128.7949,-818.4382"/>
</g>
<!-- xr&#45;&gt;xc -->
<g id="edge7" class="edge">
<title>xr-&gt;xc</title>
<path fill="none" stroke="#000000" d="M1098.1352,-846.7203C1095.499,-817.4901 1091,-760.4923 1091,-711.9446 1091,-711.9446 1091,-711.9446 1091,-386.295 1091,-333.9367 1132.0045,-284.7336 1160.135,-257.139"/>
<polygon fill="#000000" stroke="#000000" points="1162.8594,-259.3773 1167.683,-249.9442 1158.0297,-254.3104 1162.8594,-259.3773"/>
</g>
<!-- dt&#45;&gt;sq -->
<g id="edge106" class="edge">
<title>dt-&gt;sq</title>
<path fill="none" stroke="#000000" d="M1800.5614,-450.6833C1798.0513,-440.2976 1794.8559,-427.0757 1792.0145,-415.3188"/>
<polygon fill="#000000" stroke="#000000" points="1795.386,-414.3701 1789.6347,-405.4722 1788.5819,-416.0146 1795.386,-414.3701"/>
</g>
<!-- dt&#45;&gt;hz -->
<g id="edge107" class="edge">
<title>dt-&gt;hz</title>
<path fill="none" stroke="#000000" d="M1812.1091,-451.8084C1825.0601,-417.3903 1848.1657,-339.1055 1814,-288.2146 1791.0374,-254.0111 1742.1646,-241.4573 1710.7611,-236.8594"/>
<polygon fill="#000000" stroke="#000000" points="1710.8159,-233.3381 1700.453,-235.5425 1709.9288,-240.2816 1710.8159,-233.3381"/>
</g>
<!-- gs -->
<g id="node33" class="node">
<title>gs</title>
<ellipse fill="none" stroke="#ff0000" cx="1559" cy="-945.7054" rx="19.7419" ry="19.7419"/>
<text text-anchor="middle" x="1559" y="-941.5054" font-family="Times,serif" font-size="14.00" fill="#000000">gs</text>
</g>
<!-- cs -->
<g id="node42" class="node">
<title>cs</title>
<ellipse fill="none" stroke="#ff0000" cx="1596" cy="-866.1766" rx="19.158" ry="19.158"/>
<text text-anchor="middle" x="1596" y="-861.9766" font-family="Times,serif" font-size="14.00" fill="#000000">cs</text>
</g>
<!-- gs&#45;&gt;cs -->
<g id="edge91" class="edge">
<title>gs-&gt;cs</title>
<path fill="none" stroke="#000000" d="M1567.3959,-927.6591C1572.1932,-917.3476 1578.2981,-904.2256 1583.6349,-892.7544"/>
<polygon fill="#000000" stroke="#000000" points="1586.8467,-894.1482 1587.8916,-883.605 1580.5,-891.1954 1586.8467,-894.1482"/>
</g>
<!-- gs&#45;&gt;hz -->
<g id="edge92" class="edge">
<title>gs-&gt;hz</title>
<path fill="none" stroke="#000000" d="M1556.928,-925.9832C1553.9989,-896.3526 1549,-838.5702 1549,-789.3315 1549,-789.3315 1549,-789.3315 1549,-386.295 1549,-337.5664 1565.454,-324.4807 1598,-288.2146 1613.8275,-270.578 1636.7006,-256.3803 1654.5833,-246.9772"/>
<polygon fill="#000000" stroke="#000000" points="1656.5815,-249.889 1663.9282,-242.2551 1653.4245,-243.6413 1656.5815,-249.889"/>
</g>
<!-- cd -->
<g id="node34" class="node">
<title>cd</title>
<ellipse fill="none" stroke="#ff0000" cx="162" cy="-866.1766" rx="20.3045" ry="20.3045"/>
<text text-anchor="middle" x="162" y="-861.9766" font-family="Times,serif" font-size="14.00" fill="#000000">cd</text>
</g>
<!-- cd&#45;&gt;jx -->
<g id="edge69" class="edge">
<title>cd-&gt;jx</title>
<path fill="none" stroke="#000000" d="M156.8495,-846.3871C154.5546,-837.5695 151.8101,-827.0245 149.3084,-817.4124"/>
<polygon fill="#000000" stroke="#000000" points="152.6279,-816.2703 146.7219,-807.4743 145.8535,-818.0335 152.6279,-816.2703"/>
</g>
<!-- cd&#45;&gt;gh -->
<g id="edge70" class="edge">
<title>cd-&gt;gh</title>
<path fill="none" stroke="#000000" d="M159.928,-886.3067C156.9989,-916.5499 152,-975.5258 152,-1025.776 152,-1104.2329 152,-1104.2329 152,-1104.2329 152,-1152.5852 183.1251,-1201.3286 205.538,-1230.1603"/>
<polygon fill="#000000" stroke="#000000" points="202.9044,-1232.4712 211.8824,-1238.0968 208.3722,-1228.1004 202.9044,-1232.4712"/>
</g>
<!-- bm&#45;&gt;xr -->
<g id="edge102" class="edge">
<title>bm-&gt;xr</title>
<path fill="none" stroke="#000000" d="M1075.2906,-923.9738C1079.3311,-914.5228 1084.1087,-903.3476 1088.3809,-893.3548"/>
<polygon fill="#000000" stroke="#000000" points="1091.7256,-894.4345 1092.4385,-883.8637 1085.2892,-891.6828 1091.7256,-894.4345"/>
</g>
<!-- fb -->
<g id="node39" class="node">
<title>fb</title>
<ellipse fill="none" stroke="#ff0000" cx="570" cy="-945.7054" rx="19.1599" ry="19.1599"/>
<text text-anchor="middle" x="570" y="-941.5054" font-family="Times,serif" font-size="14.00" fill="#000000">fb</text>
</g>
<!-- jk&#45;&gt;fb -->
<g id="edge105" class="edge">
<title>jk-&gt;fb</title>
<path fill="none" stroke="#000000" d="M555.3114,-1007.6068C557.6585,-997.7153 560.6153,-985.255 563.2596,-974.1111"/>
<polygon fill="#000000" stroke="#000000" points="566.6704,-974.8964 565.5738,-964.3585 559.8595,-973.2802 566.6704,-974.8964"/>
</g>
<!-- jk&#45;&gt;cn -->
<g id="edge104" class="edge">
<title>jk-&gt;cn</title>
<path fill="none" stroke="#000000" d="M545.7334,-1007.766C537.6225,-978.3922 523,-918.2197 523,-866.1766 523,-866.1766 523,-866.1766 523,-386.295 523,-337.7634 534.5022,-320.2024 571,-288.2146 609.1765,-254.7554 668.834,-241.8764 703.8048,-237.0297"/>
<polygon fill="#000000" stroke="#000000" points="704.3296,-240.4914 713.8141,-235.7696 703.4552,-233.5462 704.3296,-240.4914"/>
</g>
<!-- zq -->
<g id="node37" class="node">
<title>zq</title>
<ellipse fill="none" stroke="#ff0000" cx="1236" cy="-1182.148" rx="20.3045" ry="20.3045"/>
<text text-anchor="middle" x="1236" y="-1177.948" font-family="Times,serif" font-size="14.00" fill="#000000">zq</text>
</g>
<!-- zq&#45;&gt;kg -->
<g id="edge23" class="edge">
<title>zq-&gt;kg</title>
<path fill="none" stroke="#000000" d="M1217.0874,-1174.3924C1183.6866,-1160.6954 1114.0722,-1132.1479 1074.7153,-1116.0085"/>
<polygon fill="#000000" stroke="#000000" points="1075.982,-1112.7451 1065.4017,-1112.1892 1073.326,-1119.2217 1075.982,-1112.7451"/>
</g>
<!-- zq&#45;&gt;xc -->
<g id="edge24" class="edge">
<title>zq-&gt;xc</title>
<path fill="none" stroke="#000000" d="M1254.9389,-1175.114C1301.6123,-1158.3618 1417,-1111.0046 1417,-1025.776 1417,-1025.776 1417,-1025.776 1417,-386.295 1417,-335.4245 1398.2001,-319.3876 1358,-288.2146 1314.7202,-254.6535 1250.874,-241.8991 1214.2163,-237.0874"/>
<polygon fill="#000000" stroke="#000000" points="1214.5479,-233.6021 1204.2013,-235.8822 1213.7115,-240.5519 1214.5479,-233.6021"/>
</g>
<!-- mr -->
<g id="node38" class="node">
<title>mr</title>
<ellipse fill="none" stroke="#ff0000" cx="1540" cy="-1104.2329" rx="21.5294" ry="21.5294"/>
<text text-anchor="middle" x="1540" y="-1100.0329" font-family="Times,serif" font-size="14.00" fill="#000000">mr</text>
</g>
<!-- gz -->
<g id="node45" class="node">
<title>gz</title>
<ellipse fill="none" stroke="#ff0000" cx="1540" cy="-1025.776" rx="20.3045" ry="20.3045"/>
<text text-anchor="middle" x="1540" y="-1021.576" font-family="Times,serif" font-size="14.00" fill="#000000">gz</text>
</g>
<!-- mr&#45;&gt;gz -->
<g id="edge18" class="edge">
<title>mr-&gt;gz</title>
<path fill="none" stroke="#000000" d="M1540,-1082.3783C1540,-1074.3196 1540,-1065.035 1540,-1056.3468"/>
<polygon fill="#000000" stroke="#000000" points="1543.5001,-1056.1672 1540,-1046.1673 1536.5001,-1056.1673 1543.5001,-1056.1672"/>
</g>
<!-- mr&#45;&gt;hz -->
<g id="edge17" class="edge">
<title>mr-&gt;hz</title>
<path fill="none" stroke="#000000" d="M1527.0817,-1086.7137C1507.6123,-1058.526 1473,-1000.6833 1473,-945.7054 1473,-945.7054 1473,-945.7054 1473,-386.295 1473,-338.1475 1482.9962,-320.1818 1519,-288.2146 1557.4854,-254.044 1618.1934,-241.4028 1653.6485,-236.7934"/>
<polygon fill="#000000" stroke="#000000" points="1654.2636,-240.2453 1663.7886,-235.6058 1653.4493,-233.2929 1654.2636,-240.2453"/>
</g>
<!-- fb&#45;&gt;tc -->
<g id="edge37" class="edge">
<title>fb-&gt;tc</title>
<path fill="none" stroke="#000000" d="M578.2115,-928.0554C583.1348,-917.4731 589.4836,-903.8269 594.9658,-892.0433"/>
<polygon fill="#000000" stroke="#000000" points="598.2718,-893.2344 599.3167,-882.6913 591.9251,-890.2816 598.2718,-893.2344"/>
</g>
<!-- fb&#45;&gt;cn -->
<g id="edge38" class="edge">
<title>fb-&gt;cn</title>
<path fill="none" stroke="#000000" d="M568.1787,-926.467C565.5489,-896.9802 561,-838.8231 561,-789.3315 561,-789.3315 561,-789.3315 561,-386.295 561,-337.5664 574.75,-321.8585 610,-288.2146 636.478,-262.9431 676.7534,-248.2949 703.7036,-240.7842"/>
<polygon fill="#000000" stroke="#000000" points="704.8879,-244.0918 713.6681,-238.1624 703.1066,-237.3223 704.8879,-244.0918"/>
</g>
<!-- hg&#45;&gt;bq -->
<g id="edge12" class="edge">
<title>hg-&gt;bq</title>
<path fill="none" stroke="#000000" d="M1232.1155,-620.9748C1247.2191,-608.2447 1269.9857,-589.056 1287.1846,-574.5598"/>
<polygon fill="#000000" stroke="#000000" points="1289.7319,-576.9903 1295.1225,-567.8694 1285.2206,-571.6379 1289.7319,-576.9903"/>
</g>
<!-- zv&#45;&gt;qc -->
<g id="edge79" class="edge">
<title>zv-&gt;qc</title>
<path fill="none" stroke="#000000" d="M1306.4006,-449.0167C1304.1368,-439.1568 1301.3618,-427.0701 1298.854,-416.1476"/>
<polygon fill="#000000" stroke="#000000" points="1302.2061,-415.1062 1296.557,-406.143 1295.3836,-416.6726 1302.2061,-415.1062"/>
</g>
<!-- zv&#45;&gt;xc -->
<g id="edge78" class="edge">
<title>zv-&gt;xc</title>
<path fill="none" stroke="#000000" d="M1318.9719,-450.4365C1332.6513,-415.3157 1356.0079,-338.3084 1322,-288.2146 1297.8987,-252.7133 1246.3971,-240.5514 1214.1439,-236.3852"/>
<polygon fill="#000000" stroke="#000000" points="1214.3372,-232.8852 1204.0112,-235.2567 1213.5623,-239.8421 1214.3372,-232.8852"/>
</g>
<!-- cs&#45;&gt;xj -->
<g id="edge47" class="edge">
<title>cs-&gt;xj</title>
<path fill="none" stroke="#000000" d="M1604.6228,-848.7393C1609.5005,-838.8754 1615.6944,-826.3498 1621.1361,-815.3454"/>
<polygon fill="#000000" stroke="#000000" points="1624.3771,-816.6871 1625.6725,-806.1717 1618.1024,-813.5842 1624.3771,-816.6871"/>
</g>
<!-- lk&#45;&gt;pg -->
<g id="edge103" class="edge">
<title>lk-&gt;pg</title>
<path fill="none" stroke="#000000" d="M156.5313,-699.8529C171.1068,-687.7243 193.8047,-668.837 211.0464,-654.4899"/>
<polygon fill="#000000" stroke="#000000" points="213.5646,-656.9477 219.0127,-647.8609 209.0872,-651.5669 213.5646,-656.9477"/>
</g>
<!-- bd&#45;&gt;px -->
<g id="edge4" class="edge">
<title>bd-&gt;px</title>
<path fill="none" stroke="#000000" d="M1149.1987,-770.5983C1153.7394,-761.3513 1159.3084,-750.0099 1164.3353,-739.7728"/>
<polygon fill="#000000" stroke="#000000" points="1167.4882,-741.2924 1168.7543,-730.7735 1161.2049,-738.207 1167.4882,-741.2924"/>
</g>
<!-- gz&#45;&gt;gs -->
<g id="edge98" class="edge">
<title>gz-&gt;gs</title>
<path fill="none" stroke="#000000" d="M1544.6966,-1005.9833C1546.9219,-996.6053 1549.6244,-985.2164 1552.0785,-974.8742"/>
<polygon fill="#000000" stroke="#000000" points="1555.5195,-975.5321 1554.423,-964.9942 1548.7086,-973.9159 1555.5195,-975.5321"/>
</g>
<!-- gz&#45;&gt;hz -->
<g id="edge99" class="edge">
<title>gz-&gt;hz</title>
<path fill="none" stroke="#000000" d="M1534.1314,-1006.3268C1525.6575,-976.4749 1511,-917.4313 1511,-866.1766 1511,-866.1766 1511,-866.1766 1511,-386.295 1511,-337.7634 1523.9794,-321.8132 1559,-288.2146 1585.7421,-262.5583 1626.6773,-247.9468 1653.8817,-240.5539"/>
<polygon fill="#000000" stroke="#000000" points="1655.1049,-243.8537 1663.9242,-237.9825 1653.3685,-237.0725 1655.1049,-243.8537"/>
</g>
<!-- vx&#45;&gt;cd -->
<g id="edge97" class="edge">
<title>vx-&gt;cd</title>
<path fill="none" stroke="#000000" d="M191.7575,-926.8582C186.8795,-916.9108 180.8042,-904.5221 175.4171,-893.5369"/>
<polygon fill="#000000" stroke="#000000" points="178.4532,-891.7786 170.9077,-884.3411 172.1682,-894.8607 178.4532,-891.7786"/>
</g>
<!-- rh -->
<g id="node47" class="node">
<title>rh</title>
<ellipse fill="none" stroke="#ff0000" cx="1729" cy="-1182.148" rx="19.1599" ry="19.1599"/>
<text text-anchor="middle" x="1729" y="-1177.948" font-family="Times,serif" font-size="14.00" fill="#000000">rh</text>
</g>
<!-- rh&#45;&gt;mr -->
<g id="edge90" class="edge">
<title>rh-&gt;mr</title>
<path fill="none" stroke="#000000" d="M1711.2193,-1174.818C1678.6894,-1161.4075 1609.2921,-1132.7985 1569.5588,-1116.4185"/>
<polygon fill="#000000" stroke="#000000" points="1570.716,-1113.1098 1560.1368,-1112.5343 1568.048,-1119.5815 1570.716,-1113.1098"/>
</g>
<!-- rh&#45;&gt;hz -->
<g id="edge89" class="edge">
<title>rh-&gt;hz</title>
<path fill="none" stroke="#000000" d="M1747.1216,-1175.3258C1793.0661,-1158.7192 1909,-1111.1634 1909,-1025.776 1909,-1025.776 1909,-1025.776 1909,-386.295 1909,-335.4245 1890.1036,-319.5116 1850,-288.2146 1808.1105,-255.5239 1746.469,-242.5343 1710.5086,-237.4344"/>
<polygon fill="#000000" stroke="#000000" points="1710.5921,-233.9157 1700.2232,-236.092 1709.6861,-240.8569 1710.5921,-233.9157"/>
</g>
<!-- xl&#45;&gt;sz -->
<g id="edge88" class="edge">
<title>xl-&gt;sz</title>
<path fill="none" stroke="#000000" d="M266.7546,-1087.2089C261.8091,-1076.9982 255.4141,-1063.7949 249.8209,-1052.2468"/>
<polygon fill="#000000" stroke="#000000" points="252.8696,-1050.512 245.3606,-1043.0377 246.5697,-1053.5633 252.8696,-1050.512"/>
</g>
<!-- xl&#45;&gt;gh -->
<g id="edge87" class="edge">
<title>xl-&gt;gh</title>
<path fill="none" stroke="#000000" d="M269.4312,-1122.2506C261.3085,-1148.5313 246.1409,-1197.6056 236.5838,-1228.5271"/>
<polygon fill="#000000" stroke="#000000" points="233.1851,-1227.6709 233.5761,-1238.2585 239.873,-1229.738 233.1851,-1227.6709"/>
</g>
<!-- jf -->
<g id="node49" class="node">
<title>jf</title>
<polygon fill="none" stroke="#0000ff" points="1132,-180.2146 1096,-180.2146 1096,-144.2146 1132,-144.2146 1132,-180.2146"/>
<text text-anchor="middle" x="1114" y="-158.0146" font-family="Times,serif" font-size="14.00" fill="#000000">jf</text>
</g>
<!-- mf -->
<g id="node54" class="node">
<title>mf</title>
<polygon fill="none" stroke="#0000ff" points="886,-108.2146 850,-108.2146 850,-72.2146 886,-72.2146 886,-108.2146"/>
<text text-anchor="middle" x="868" y="-86.0146" font-family="Times,serif" font-size="14.00" fill="#000000">mf</text>
</g>
<!-- jf&#45;&gt;mf -->
<g id="edge84" class="edge">
<title>jf-&gt;mf</title>
<path fill="none" stroke="#000000" d="M1095.911,-156.9203C1053.3503,-144.4635 946.6441,-113.2324 895.7912,-98.3486"/>
<polygon fill="#000000" stroke="#000000" points="896.696,-94.9667 886.1155,-95.5167 894.7297,-101.6848 896.696,-94.9667"/>
</g>
<!-- cn&#45;&gt;xd -->
<g id="edge32" class="edge">
<title>cn-&gt;xd</title>
<path fill="none" stroke="#000000" d="M713.9864,-237.0639C670.1142,-244.3087 559.2516,-264.546 531,-288.2146 494.0929,-319.1345 485,-338.1475 485,-386.295 485,-945.7054 485,-945.7054 485,-945.7054 485,-995.6873 513.3076,-1048.1952 532.8451,-1078.4831"/>
<polygon fill="#000000" stroke="#000000" points="530.143,-1080.7414 538.5859,-1087.142 535.9772,-1076.8733 530.143,-1080.7414"/>
</g>
<!-- cn&#45;&gt;tc -->
<g id="edge31" class="edge">
<title>cn-&gt;tc</title>
<path fill="none" stroke="#000000" d="M713.9282,-242.2551C695.4137,-251.2398 666.7585,-267.312 648,-288.2146 615.454,-324.4807 599,-337.5664 599,-386.295 599,-711.9446 599,-711.9446 599,-711.9446 599,-756.0761 602.307,-807.2154 604.6686,-838.1084"/>
<polygon fill="#000000" stroke="#000000" points="601.1847,-838.4515 605.4575,-848.1465 608.1632,-837.903 601.1847,-838.4515"/>
</g>
<!-- cn&#45;&gt;cx -->
<g id="edge30" class="edge">
<title>cn-&gt;cx</title>
<path fill="none" stroke="#000000" d="M750.2442,-236.4635C780.604,-241.5287 840.545,-255.9957 879,-288.2146 918.1701,-321.0325 939,-335.194 939,-386.295 939,-1025.776 939,-1025.776 939,-1025.776 939,-1069.7313 939,-1120.6365 936.7231,-1152.1181"/>
<polygon fill="#000000" stroke="#000000" points="933.2084,-1152.1321 935.819,-1162.4002 940.1815,-1152.7453 933.2084,-1152.1321"/>
</g>
<!-- cn&#45;&gt;jd -->
<g id="edge29" class="edge">
<title>cn-&gt;jd</title>
<path fill="none" stroke="#000000" d="M750.3217,-237.0437C776.4927,-242.154 823.8569,-255.6018 846,-288.2146 897.6533,-364.2907 873.206,-406.9687 847,-495.11 843.2019,-507.8846 836.0839,-520.7824 829.2536,-531.2784"/>
<polygon fill="#000000" stroke="#000000" points="826.1687,-529.5893 823.416,-539.8203 831.9481,-533.539 826.1687,-529.5893"/>
</g>
<!-- sh -->
<g id="node51" class="node">
<title>sh</title>
<polygon fill="none" stroke="#0000ff" points="859,-180.2146 823,-180.2146 823,-144.2146 859,-144.2146 859,-180.2146"/>
<text text-anchor="middle" x="841" y="-158.0146" font-family="Times,serif" font-size="14.00" fill="#000000">sh</text>
</g>
<!-- cn&#45;&gt;sh -->
<g id="edge28" class="edge">
<title>cn-&gt;sh</title>
<path fill="none" stroke="#000000" d="M750.4904,-222.0008C767.9774,-210.4497 794.4171,-192.985 814.2116,-179.9097"/>
<polygon fill="#000000" stroke="#000000" points="816.3678,-182.6801 822.7827,-174.248 812.5096,-176.8393 816.3678,-182.6801"/>
</g>
<!-- sh&#45;&gt;mf -->
<g id="edge1" class="edge">
<title>sh-&gt;mf</title>
<path fill="none" stroke="#000000" d="M847.8132,-144.046C850.7644,-136.1763 854.2858,-126.7858 857.555,-118.0679"/>
<polygon fill="#000000" stroke="#000000" points="860.8609,-119.2201 861.095,-108.6279 854.3066,-116.7622 860.8609,-119.2201"/>
</g>
<!-- hz&#45;&gt;zs -->
<g id="edge62" class="edge">
<title>hz-&gt;zs</title>
<path fill="none" stroke="#000000" d="M1685.7538,-252.3825C1691.291,-280.8115 1701,-337.6021 1701,-386.295 1701,-469.0492 1701,-469.0492 1701,-469.0492 1701,-516.6204 1704.753,-571.7695 1707.4119,-604.8727"/>
<polygon fill="#000000" stroke="#000000" points="1703.9544,-605.5326 1708.2647,-615.211 1710.9307,-604.9571 1703.9544,-605.5326"/>
</g>
<!-- hz&#45;&gt;xj -->
<g id="edge60" class="edge">
<title>hz-&gt;xj</title>
<path fill="none" stroke="#000000" d="M1670.1896,-252.5845C1653.4939,-280.3674 1625,-335.2595 1625,-386.295 1625,-634.5577 1625,-634.5577 1625,-634.5577 1625,-678.6187 1628.6801,-729.6165 1631.3338,-760.6633"/>
<polygon fill="#000000" stroke="#000000" points="1627.8598,-761.1136 1632.2219,-770.7688 1634.8329,-760.5007 1627.8598,-761.1136"/>
</g>
<!-- hz&#45;&gt;cs -->
<g id="edge61" class="edge">
<title>hz-&gt;cs</title>
<path fill="none" stroke="#000000" d="M1663.683,-249.9442C1636.0771,-275.5096 1587,-329.0142 1587,-386.295 1587,-711.9446 1587,-711.9446 1587,-711.9446 1587,-755.372 1590.6001,-805.5611 1593.2464,-836.5875"/>
<polygon fill="#000000" stroke="#000000" points="1589.7747,-837.0644 1594.1352,-846.7203 1596.7479,-836.4527 1589.7747,-837.0644"/>
</g>
<!-- hz&#45;&gt;rh -->
<g id="edge63" class="edge">
<title>hz-&gt;rh</title>
<path fill="none" stroke="#000000" d="M1700.0533,-235.0795C1736.2125,-237.749 1816.8383,-248.2878 1868,-288.2146 1908.1036,-319.5116 1927,-335.4245 1927,-386.295 1927,-1025.776 1927,-1025.776 1927,-1025.776 1927,-1110.5944 1812.6058,-1158.0837 1757.5734,-1174.9897"/>
<polygon fill="#000000" stroke="#000000" points="1756.3304,-1171.7067 1747.7192,-1177.8791 1758.3,-1178.4239 1756.3304,-1171.7067"/>
</g>
<!-- mz -->
<g id="node55" class="node">
<title>mz</title>
<polygon fill="none" stroke="#0000ff" points="1443,-180.2146 1407,-180.2146 1407,-144.2146 1443,-144.2146 1443,-180.2146"/>
<text text-anchor="middle" x="1425" y="-158.0146" font-family="Times,serif" font-size="14.00" fill="#000000">mz</text>
</g>
<!-- hz&#45;&gt;mz -->
<g id="edge64" class="edge">
<title>hz-&gt;mz</title>
<path fill="none" stroke="#000000" d="M1663.9283,-229.1517C1619.6901,-216.7581 1505.7224,-184.8294 1452.7865,-169.9991"/>
<polygon fill="#000000" stroke="#000000" points="1453.6252,-166.5994 1443.0518,-167.2719 1451.7368,-173.3399 1453.6252,-166.5994"/>
</g>
<!-- bh -->
<g id="node53" class="node">
<title>bh</title>
<polygon fill="none" stroke="#0000ff" points="243,-404.295 207,-404.295 207,-368.295 243,-368.295 243,-404.295"/>
<text text-anchor="middle" x="225" y="-382.095" font-family="Times,serif" font-size="14.00" fill="#000000">bh</text>
</g>
<!-- bh&#45;&gt;mf -->
<g id="edge10" class="edge">
<title>bh-&gt;mf</title>
<path fill="none" stroke="#000000" d="M243.208,-377.9108C333.3834,-336.388 732.137,-152.775 840.6544,-102.8064"/>
<polygon fill="#000000" stroke="#000000" points="842.3314,-105.8874 849.9508,-98.5257 839.4036,-99.5291 842.3314,-105.8874"/>
</g>
<!-- end -->
<g id="node59" class="node">
<title>end</title>
<polygon fill="none" stroke="#000000" points="886.2152,-36.3225 849.7848,-36.3225 849.7848,.1079 886.2152,.1079 886.2152,-36.3225"/>
<polyline fill="none" stroke="#000000" points="861.7848,-36.3225 849.7848,-24.3225 "/>
<polyline fill="none" stroke="#000000" points="849.7848,-11.8921 861.7848,.1079 "/>
<polyline fill="none" stroke="#000000" points="874.2152,.1079 886.2152,-11.8921 "/>
<polyline fill="none" stroke="#000000" points="886.2152,-24.3225 874.2152,-36.3225 "/>
<text text-anchor="middle" x="868" y="-13.9073" font-family="Times,serif" font-size="14.00" fill="#000000">end</text>
</g>
<!-- mf&#45;&gt;end -->
<g id="edge20" class="edge">
<title>mf-&gt;end</title>
<path fill="none" stroke="#000000" d="M868,-72.0189C868,-64.2477 868,-54.9956 868,-46.3686"/>
<polygon fill="#000000" stroke="#000000" points="871.5001,-46.2972 868,-36.2972 864.5001,-46.2972 871.5001,-46.2972"/>
</g>
<!-- mz&#45;&gt;mf -->
<g id="edge100" class="edge">
<title>mz-&gt;mf</title>
<path fill="none" stroke="#000000" d="M1406.7843,-159.86C1325.462,-149.3479 995.2593,-106.6646 896.2155,-93.8619"/>
<polygon fill="#000000" stroke="#000000" points="896.4429,-90.3622 886.0767,-92.5513 895.5455,-97.3044 896.4429,-90.3622"/>
</g>
<!-- xc&#45;&gt;hn -->
<g id="edge44" class="edge">
<title>xc-&gt;hn</title>
<path fill="none" stroke="#000000" d="M1167.9242,-237.9825C1141.7952,-244.2622 1093.292,-259.1526 1063,-288.2146 1027.9794,-321.8132 1015,-337.7634 1015,-386.295 1015,-866.1766 1015,-866.1766 1015,-866.1766 1015,-912.0771 1027.5088,-964.0632 1036.6346,-995.8822"/>
<polygon fill="#000000" stroke="#000000" points="1033.3917,-997.2599 1039.5768,-1005.862 1040.106,-995.2804 1033.3917,-997.2599"/>
</g>
<!-- xc&#45;&gt;bm -->
<g id="edge39" class="edge">
<title>xc-&gt;bm</title>
<path fill="none" stroke="#000000" d="M1167.9282,-242.2551C1149.4137,-251.2398 1120.7585,-267.312 1102,-288.2146 1069.454,-324.4807 1053,-337.5664 1053,-386.295 1053,-789.3315 1053,-789.3315 1053,-789.3315 1053,-831.9182 1057.8477,-880.8053 1061.6226,-912.4174"/>
<polygon fill="#000000" stroke="#000000" points="1058.1607,-912.9426 1062.8531,-922.4417 1065.1085,-912.0897 1058.1607,-912.9426"/>
</g>
<!-- xc&#45;&gt;zq -->
<g id="edge40" class="edge">
<title>xc-&gt;zq</title>
<path fill="none" stroke="#000000" d="M1204.0811,-234.9725C1240.8141,-237.4185 1323.5243,-247.5226 1376,-288.2146 1416.2001,-319.3876 1435,-335.4245 1435,-386.295 1435,-1025.776 1435,-1025.776 1435,-1025.776 1435,-1110.4347 1321.1503,-1157.7267 1265.5352,-1174.7739"/>
<polygon fill="#000000" stroke="#000000" points="1264.4807,-1171.4356 1255.8689,-1177.6072 1266.4497,-1178.153 1264.4807,-1171.4356"/>
</g>
<!-- xc&#45;&gt;hg -->
<g id="edge42" class="edge">
<title>xc-&gt;hg</title>
<path fill="none" stroke="#000000" d="M1189.7538,-252.3825C1195.291,-280.8115 1205,-337.6021 1205,-386.295 1205,-469.0492 1205,-469.0492 1205,-469.0492 1205,-516.2124 1209.502,-570.7693 1212.7458,-603.9569"/>
<polygon fill="#000000" stroke="#000000" points="1209.267,-604.344 1213.7474,-613.9448 1216.232,-603.6454 1209.267,-604.344"/>
</g>
<!-- xc&#45;&gt;bd -->
<g id="edge43" class="edge">
<title>xc-&gt;bd</title>
<path fill="none" stroke="#000000" d="M1174.1896,-252.5845C1157.4939,-280.3674 1129,-335.2595 1129,-386.295 1129,-634.5577 1129,-634.5577 1129,-634.5577 1129,-677.4505 1133.2554,-726.8619 1136.4727,-758.0896"/>
<polygon fill="#000000" stroke="#000000" points="1133.0242,-758.761 1137.5587,-768.3364 1139.9852,-758.0232 1133.0242,-758.761"/>
</g>
<!-- xc&#45;&gt;jf -->
<g id="edge41" class="edge">
<title>xc-&gt;jf</title>
<path fill="none" stroke="#000000" d="M1167.8314,-216.046C1159.2848,-207.4994 1148.9443,-197.1589 1139.6198,-187.8344"/>
<polygon fill="#000000" stroke="#000000" points="1141.9592,-185.2241 1132.4133,-180.6279 1137.0095,-190.1738 1141.9592,-185.2241"/>
</g>
<!-- gh&#45;&gt;tv -->
<g id="edge53" class="edge">
<title>gh-&gt;tv</title>
<path fill="none" stroke="#000000" d="M246.1663,-1248.2087C271.9032,-1238.6087 319.2476,-1221.4697 358,-1202.2997 363.0392,-1199.807 368.3131,-1196.7884 373.444,-1193.855"/>
<polygon fill="#000000" stroke="#000000" points="375.4398,-1196.7483 382.4435,-1188.7985 372.0109,-1190.6456 375.4398,-1196.7483"/>
</g>
<!-- gh&#45;&gt;sz -->
<g id="edge55" class="edge">
<title>gh-&gt;sz</title>
<path fill="none" stroke="#000000" d="M228.7062,-1238.2109C230.2549,-1198.5427 233.9618,-1103.5951 235.851,-1055.2067"/>
<polygon fill="#000000" stroke="#000000" points="239.3538,-1055.1998 236.2467,-1045.0709 232.3592,-1054.9267 239.3538,-1055.1998"/>
</g>
<!-- gh&#45;&gt;lk -->
<g id="edge54" class="edge">
<title>gh-&gt;lk</title>
<path fill="none" stroke="#000000" d="M209.6834,-1250.4678C187.4749,-1242.6056 150.0404,-1226.7132 126,-1202.2997 91.6733,-1167.4403 76,-1153.1563 76,-1104.2329 76,-1104.2329 76,-1104.2329 76,-866.1766 76,-816.2909 105.545,-764.1168 125.0998,-735.0479"/>
<polygon fill="#000000" stroke="#000000" points="127.9965,-737.0126 130.804,-726.7965 122.2384,-733.032 127.9965,-737.0126"/>
</g>
<!-- gh&#45;&gt;vx -->
<g id="edge57" class="edge">
<title>gh-&gt;vx</title>
<path fill="none" stroke="#000000" d="M226.2801,-1238.0621C222.8616,-1201.6524 215.0233,-1117.3581 209,-1046.4695 207.0101,-1023.0508 204.9127,-996.5566 203.3649,-976.6146"/>
<polygon fill="#000000" stroke="#000000" points="206.8476,-976.2539 202.5875,-966.5533 199.8684,-976.7932 206.8476,-976.2539"/>
</g>
<!-- gh&#45;&gt;bh -->
<g id="edge56" class="edge">
<title>gh-&gt;bh</title>
<path fill="none" stroke="#000000" d="M209.8046,-1252.7696C169.2277,-1244.5982 72.9414,-1223.4588 48,-1202.2997 10.9959,-1170.9073 0,-1152.759 0,-1104.2329 0,-1104.2329 0,-1104.2329 0,-554.4871 0,-457.1808 136.6714,-409.3864 196.9771,-393.0336"/>
<polygon fill="#000000" stroke="#000000" points="198.1767,-396.3378 206.9676,-390.4242 196.4077,-389.565 198.1767,-396.3378"/>
</g>
<!-- start -->
<g id="node58" class="node">
<title>start</title>
<polygon fill="none" stroke="#000000" points="1083,-1274.2997 1043.7627,-1256.2997 1083,-1238.2997 1122.2373,-1256.2997 1083,-1274.2997"/>
<polyline fill="none" stroke="#000000" points="1054.6698,-1261.3033 1054.6698,-1251.2962 "/>
<polyline fill="none" stroke="#000000" points="1072.0929,-1243.3033 1093.9071,-1243.3033 "/>
<polyline fill="none" stroke="#000000" points="1111.3302,-1251.2962 1111.3302,-1261.3033 "/>
<polyline fill="none" stroke="#000000" points="1093.9071,-1269.2962 1072.0929,-1269.2962 "/>
<text text-anchor="middle" x="1083" y="-1252.0997" font-family="Times,serif" font-size="14.00" fill="#000000">start</text>
</g>
<!-- start&#45;&gt;tv -->
<g id="edge15" class="edge">
<title>start-&gt;tv</title>
<path fill="none" stroke="#000000" d="M1050.9736,-1252.8227C935.0971,-1240.2423 538.7149,-1197.208 428.5874,-1185.2517"/>
<polygon fill="#000000" stroke="#000000" points="428.8783,-1181.7628 418.5589,-1184.1629 428.1227,-1188.7219 428.8783,-1181.7628"/>
</g>
<!-- start&#45;&gt;cx -->
<g id="edge13" class="edge">
<title>start-&gt;cx</title>
<path fill="none" stroke="#000000" d="M1063.6224,-1246.9084C1036.776,-1233.8972 988.1237,-1210.3178 957.5196,-1195.4855"/>
<polygon fill="#000000" stroke="#000000" points="958.7932,-1192.2134 948.2679,-1191.0016 955.7402,-1198.5125 958.7932,-1192.2134"/>
</g>
<!-- start&#45;&gt;zq -->
<g id="edge14" class="edge">
<title>start-&gt;zq</title>
<path fill="none" stroke="#000000" d="M1102.3776,-1246.9084C1129.224,-1233.8972 1177.8763,-1210.3178 1208.4804,-1195.4855"/>
<polygon fill="#000000" stroke="#000000" points="1210.2598,-1198.5125 1217.7321,-1191.0016 1207.2068,-1192.2134 1210.2598,-1198.5125"/>
</g>
<!-- start&#45;&gt;rh -->
<g id="edge16" class="edge">
<title>start-&gt;rh</title>
<path fill="none" stroke="#000000" d="M1114.5952,-1252.6731C1225.0469,-1239.9948 1592.9675,-1197.7627 1699.7254,-1185.5084"/>
<polygon fill="#000000" stroke="#000000" points="1700.2439,-1188.9719 1709.7796,-1184.3543 1699.4456,-1182.0176 1700.2439,-1188.9719"/>
</g>
</g>
</svg>